Coordinates
version=1
nRows=7
nColumns=40
inDegrees=yes

Units are S.I. units (second, meters, Newtons, ...)
Angles are in degrees.

endheader
time	pelvis_tilt	pelvis_list	pelvis_rotation	pelvis_tx	pelvis_ty	pelvis_tz	hip_flexion_r	hip_adduction_r	hip_rotation_r	knee_angle_r	knee_angle_r_beta	ankle_angle_r	subtalar_angle_r	mtp_angle_r	hip_flexion_l	hip_adduction_l	hip_rotation_l	knee_angle_l	knee_angle_l_beta	ankle_angle_l	subtalar_angle_l	mtp_angle_l	lumbar_extension	lumbar_bending	lumbar_rotation	arm_flex_r	arm_add_r	arm_rot_r	elbow_flex_r	pro_sup_r	wrist_flex_r	wrist_dev_r	arm_flex_l	arm_add_l	arm_rot_l	elbow_flex_l	pro_sup_l	wrist_flex_l	wrist_dev_l
     26.51750000	     -4.18599635	     -6.00619153	      4.60234012	      0.99121153	      0.93144688	      0.48828283	      8.53502990	      5.44520413	    -20.75491460	     10.72547060	     10.72547060	      9.15562976	      2.68633481	     -6.81196099	     39.53508507	    -12.52244017	      0.83452084	     46.88548663	     46.88548663	      9.11777292	    -17.30291832	     12.82915929	    -12.96938552	      7.22362455	      5.39191463	     30.42428529	    -20.16203307	     -0.50615283	     52.89893614	     45.20455849	      0.00000000	      0.00000000	     -4.27340629	     -6.86809510	     -1.75288885	     24.28844401	     46.62245964	      0.00000000	      0.00000000
     26.52900000	     -4.29042672	     -6.02033767	      4.71995734	      0.99066282	      0.93109891	      0.48855657	      7.90417033	      5.60635295	    -20.69937376	     10.28798860	     10.28798860	      9.46588716	      2.83607541	     -6.89163212	     39.41684901	    -12.17536385	      0.78090583	     42.65058125	     42.65058125	      9.08175401	    -16.59078757	     13.22438672	    -12.87587456	      7.28219491	      5.35332442	     32.46315862	    -20.08565941	     -0.55681414	     54.65636671	     45.15848355	      0.00000000	      0.00000000	     -5.60411906	     -7.00941750	     -1.79438159	     23.58105559	     46.60550784	      0.00000000	      0.00000000
     26.54050000	     -4.38707825	     -6.11342183	      4.84562324	      0.99014935	      0.93062273	      0.48870637	      7.27194321	      5.83339713	    -20.75859219	      9.85720224	      9.85720224	      9.73585673	      3.08583130	     -6.98269534	     39.20847117	    -11.90794240	      0.72090289	     38.36661926	     38.36661926	      9.00024091	    -15.48064506	     13.46664413	    -12.79772723	      7.39369892	      5.25439374	     34.40172709	    -19.96278006	     -0.46601165	     56.79703000	     45.09297939	      0.00000000	      0.00000000	     -6.96737382	     -7.14196354	     -1.85387070	     23.02580442	     46.59010124	      0.00000000	      0.00000000
     26.55200000	     -4.47231666	     -6.29667006	      4.99919349	      0.98977269	      0.92996168	      0.48866433	      6.59724779	      6.13452110	    -21.04084301	      9.38470775	      9.38470775	     10.03314551	      3.67663156	     -7.09877453	     38.88428596	    -11.70358117	      0.69152705	     34.03020346	     34.03020346	      8.41202014	    -14.14842011	     12.19499529	    -12.79927293	      7.67888116	      5.42705012	     35.45555072	    -20.62910208	      0.47610902	     61.34632835	     44.92785468	      0.00000000	      0.00000000	     -8.42710324	     -7.26582481	     -2.15921093	     23.39607379	     46.60283111	      0.00000000	      0.00000000
     26.56350000	     -4.57058693	     -6.40289012	      5.12075357	      0.98944853	      0.92930566	      0.48853971	      5.99432267	      6.35020853	    -21.04006957	      9.03514531	      9.03514531	     10.34170761	      3.84359186	     -7.15087586	     38.50397810	    -11.43635586	      0.55499320	     29.88919576	     29.88919576	      8.45046225	    -12.30940601	     12.50160972	    -12.68786320	      7.84333726	      5.34377558	     37.33953801	    -20.38527162	      0.40836426	     63.23188373	     44.88153699	      0.00000000	      0.00000000	     -9.67216681	     -7.38057201	     -2.17895942	     23.00835553	     46.57868364	      0.00000000	      0.00000000
     26.57500000	     -4.65743594	     -6.58635479	      5.26890206	      0.98927953	      0.92853518	      0.48829129	      5.29471690	      6.66279218	    -21.21364870	      8.53080400	      8.53080400	     10.66234543	      4.32086446	     -7.11062094	     38.15014354	    -11.26376181	      0.30138123	     26.07627300	     26.07627300	      8.41101097	    -10.12434123	     12.50235215	    -12.62399851	      8.12664146	      5.15645330	     38.88453342	    -20.14940383	      0.61398436	     66.33734031	     44.79124728	      0.00000000	      0.00000000	    -11.12765649	     -7.48018318	     -2.27462153	     23.22751484	     46.55537994	      0.00000000	      0.00000000
     26.58650000	     -4.90742952	     -6.90408207	      5.39687939	      0.98893577	      0.92731628	      0.48794496	      4.99437827	      7.03430799	    -21.27263959	      8.41939425	      8.41939425	     11.01263347	      4.36576203	     -7.23184460	     38.12800384	    -11.11229262	      0.33178885	     22.79908351	     22.79908351	      8.37599075	     -8.34602693	     12.94742938	    -12.26379631	      8.57507806	      5.47708099	     40.71172013	    -20.33663572	      0.43162924	     67.56553911	     44.76753991	      0.00000000	      0.00000000	    -12.11943981	     -7.59650996	     -2.31473541	     23.02761052	     46.54093504	      0.00000000	      0.00000000
